<mxfile host="app.diagrams.net" agent="Mozilla/5.0 (Windows NT 10.0; Win64; x64) AppleWebKit/537.36 (KHTML, like Gecko) Chrome/128.0.0.0 Safari/537.36 OPR/114.0.0.0 (Edition std-1)" version="24.8.0">
  <diagram name="PÃ¡gina-1" id="O3nrLMKAUEcfZokk5Aa8">
    <mxGraphModel grid="1" page="1" gridSize="10" guides="1" tooltips="1" connect="1" arrows="1" fold="1" pageScale="1" pageWidth="1169" pageHeight="827" math="0" shadow="0">
      <root>
        <mxCell id="0" />
        <mxCell id="1" parent="0" />
        <mxCell id="ZsgfNWjqqYG_w8EOnqYH-56" value="" style="rounded=0;whiteSpace=wrap;html=1;fillColor=none;movable=0;resizable=0;rotatable=0;deletable=0;editable=0;locked=1;connectable=0;" vertex="1" parent="1">
          <mxGeometry x="30" y="60" width="570" height="260" as="geometry" />
        </mxCell>
        <mxCell id="ZsgfNWjqqYG_w8EOnqYH-54" value="" style="rounded=0;whiteSpace=wrap;html=1;fillColor=none;movable=0;resizable=0;rotatable=0;deletable=0;editable=0;locked=1;connectable=0;" vertex="1" parent="1">
          <mxGeometry x="20" y="370" width="930" height="440" as="geometry" />
        </mxCell>
        <mxCell id="ZsgfNWjqqYG_w8EOnqYH-2" value="SISTEMA" style="rounded=0;whiteSpace=wrap;html=1;fillColor=#0050ef;strokeColor=#001DBC;fontColor=#ffffff;" vertex="1" parent="1">
          <mxGeometry x="70" y="696.25" width="100" height="50" as="geometry" />
        </mxCell>
        <mxCell id="ZsgfNWjqqYG_w8EOnqYH-10" value="VERIFICA&lt;div&gt;ARCHIVO&lt;/div&gt;" style="ellipse;whiteSpace=wrap;html=1;aspect=fixed;fillColor=#76608a;fontColor=#ffffff;strokeColor=#432D57;" vertex="1" parent="1">
          <mxGeometry x="270" y="683.75" width="75" height="75" as="geometry" />
        </mxCell>
        <mxCell id="ZsgfNWjqqYG_w8EOnqYH-11" value="CARGA A DOCUMENTO&lt;div&gt;A SISTEMA&lt;/div&gt;" style="ellipse;whiteSpace=wrap;html=1;aspect=fixed;fillColor=#76608a;fontColor=#ffffff;strokeColor=#432D57;" vertex="1" parent="1">
          <mxGeometry x="73.75" y="513.75" width="92.5" height="92.5" as="geometry" />
        </mxCell>
        <mxCell id="ZsgfNWjqqYG_w8EOnqYH-12" value="" style="endArrow=classic;html=1;rounded=0;exitX=1;exitY=0.5;exitDx=0;exitDy=0;entryX=0;entryY=0.5;entryDx=0;entryDy=0;" edge="1" parent="1" source="ZsgfNWjqqYG_w8EOnqYH-2" target="ZsgfNWjqqYG_w8EOnqYH-10">
          <mxGeometry width="50" height="50" relative="1" as="geometry">
            <mxPoint x="550" y="656.25" as="sourcePoint" />
            <mxPoint x="600" y="606.25" as="targetPoint" />
          </mxGeometry>
        </mxCell>
        <mxCell id="ZsgfNWjqqYG_w8EOnqYH-14" value="USUARIO" style="rounded=0;whiteSpace=wrap;html=1;fillColor=#647687;fontColor=#ffffff;strokeColor=#314354;" vertex="1" parent="1">
          <mxGeometry x="70" y="396.25" width="100" height="50" as="geometry" />
        </mxCell>
        <mxCell id="ZsgfNWjqqYG_w8EOnqYH-15" value="" style="endArrow=classic;html=1;rounded=0;exitX=0.5;exitY=1;exitDx=0;exitDy=0;entryX=0.5;entryY=0;entryDx=0;entryDy=0;" edge="1" parent="1" source="ZsgfNWjqqYG_w8EOnqYH-14" target="ZsgfNWjqqYG_w8EOnqYH-11">
          <mxGeometry width="50" height="50" relative="1" as="geometry">
            <mxPoint x="550" y="656.25" as="sourcePoint" />
            <mxPoint x="600" y="606.25" as="targetPoint" />
          </mxGeometry>
        </mxCell>
        <mxCell id="ZsgfNWjqqYG_w8EOnqYH-16" value="" style="endArrow=classic;html=1;rounded=0;exitX=0.5;exitY=1;exitDx=0;exitDy=0;entryX=0.5;entryY=0;entryDx=0;entryDy=0;" edge="1" parent="1" source="ZsgfNWjqqYG_w8EOnqYH-11" target="ZsgfNWjqqYG_w8EOnqYH-2">
          <mxGeometry width="50" height="50" relative="1" as="geometry">
            <mxPoint x="550" y="656.25" as="sourcePoint" />
            <mxPoint x="600" y="606.25" as="targetPoint" />
          </mxGeometry>
        </mxCell>
        <mxCell id="ZsgfNWjqqYG_w8EOnqYH-17" value="BASES DE DATOS" style="rounded=0;whiteSpace=wrap;html=1;fillColor=#fa6800;fontColor=#000000;strokeColor=#C73500;" vertex="1" parent="1">
          <mxGeometry x="800" y="696.25" width="100" height="50" as="geometry" />
        </mxCell>
        <mxCell id="ZsgfNWjqqYG_w8EOnqYH-23" value="" style="edgeStyle=orthogonalEdgeStyle;rounded=0;orthogonalLoop=1;jettySize=auto;html=1;" edge="1" parent="1" source="ZsgfNWjqqYG_w8EOnqYH-18" target="ZsgfNWjqqYG_w8EOnqYH-22">
          <mxGeometry relative="1" as="geometry" />
        </mxCell>
        <mxCell id="ZsgfNWjqqYG_w8EOnqYH-18" value="SERVICOS&lt;div&gt;O APIS&lt;/div&gt;" style="rounded=0;whiteSpace=wrap;html=1;fillColor=#6d8764;fontColor=#ffffff;strokeColor=#3A5431;" vertex="1" parent="1">
          <mxGeometry x="440" y="696.25" width="100" height="50" as="geometry" />
        </mxCell>
        <mxCell id="ZsgfNWjqqYG_w8EOnqYH-20" value="" style="endArrow=classic;html=1;rounded=0;exitX=1;exitY=0.5;exitDx=0;exitDy=0;entryX=0;entryY=0.5;entryDx=0;entryDy=0;" edge="1" parent="1" source="ZsgfNWjqqYG_w8EOnqYH-10" target="ZsgfNWjqqYG_w8EOnqYH-18">
          <mxGeometry width="50" height="50" relative="1" as="geometry">
            <mxPoint x="650" y="646.25" as="sourcePoint" />
            <mxPoint x="700" y="596.25" as="targetPoint" />
          </mxGeometry>
        </mxCell>
        <mxCell id="ZsgfNWjqqYG_w8EOnqYH-32" value="" style="edgeStyle=orthogonalEdgeStyle;rounded=0;orthogonalLoop=1;jettySize=auto;html=1;" edge="1" parent="1" source="ZsgfNWjqqYG_w8EOnqYH-22" target="ZsgfNWjqqYG_w8EOnqYH-17">
          <mxGeometry relative="1" as="geometry" />
        </mxCell>
        <mxCell id="ZsgfNWjqqYG_w8EOnqYH-22" value="GENERA&lt;div&gt;ESTADIS&lt;/div&gt;&lt;div&gt;TICA&lt;/div&gt;" style="ellipse;whiteSpace=wrap;html=1;rounded=0;fillColor=#76608a;fontColor=#ffffff;strokeColor=#432D57;" vertex="1" parent="1">
          <mxGeometry x="630" y="681.25" width="80" height="80" as="geometry" />
        </mxCell>
        <mxCell id="ZsgfNWjqqYG_w8EOnqYH-35" value="USUARIO" style="rounded=0;whiteSpace=wrap;html=1;fillColor=#647687;fontColor=#ffffff;strokeColor=#314354;" vertex="1" parent="1">
          <mxGeometry x="60" y="165" width="100" height="50" as="geometry" />
        </mxCell>
        <mxCell id="ZsgfNWjqqYG_w8EOnqYH-37" value="SISTEMA" style="strokeWidth=2;html=1;shape=mxgraph.flowchart.start_2;whiteSpace=wrap;fillColor=#0050ef;strokeColor=#001DBC;fontColor=#ffffff;" vertex="1" parent="1">
          <mxGeometry x="265" y="142.5" width="100" height="95" as="geometry" />
        </mxCell>
        <mxCell id="ZsgfNWjqqYG_w8EOnqYH-52" value="&lt;font style=&quot;font-size: 18px;&quot;&gt;DIAGRAMA DE CONTEXTO&lt;/font&gt;" style="text;html=1;align=center;verticalAlign=middle;resizable=0;points=[];autosize=1;strokeColor=none;fillColor=none;" vertex="1" parent="1">
          <mxGeometry x="200" y="80" width="250" height="40" as="geometry" />
        </mxCell>
        <mxCell id="ZsgfNWjqqYG_w8EOnqYH-53" value="&lt;font style=&quot;font-size: 18px;&quot;&gt;DIAGRAMA DE FLUJO DE DATOS&lt;/font&gt;" style="text;html=1;align=center;verticalAlign=middle;resizable=0;points=[];autosize=1;strokeColor=none;fillColor=none;" vertex="1" parent="1">
          <mxGeometry x="570" y="406.25" width="310" height="40" as="geometry" />
        </mxCell>
        <mxCell id="ZsgfNWjqqYG_w8EOnqYH-57" value="SISTEMA EXT&lt;div&gt;API&lt;/div&gt;" style="rounded=0;whiteSpace=wrap;html=1;fillColor=#6d8764;fontColor=#ffffff;strokeColor=#3A5431;" vertex="1" parent="1">
          <mxGeometry x="450" y="165" width="100" height="50" as="geometry" />
        </mxCell>
        <mxCell id="ZsgfNWjqqYG_w8EOnqYH-59" value="" style="endArrow=classic;startArrow=classic;html=1;rounded=0;exitX=1;exitY=0.5;exitDx=0;exitDy=0;exitPerimeter=0;entryX=0;entryY=0.5;entryDx=0;entryDy=0;" edge="1" parent="1" source="ZsgfNWjqqYG_w8EOnqYH-37" target="ZsgfNWjqqYG_w8EOnqYH-57">
          <mxGeometry width="50" height="50" relative="1" as="geometry">
            <mxPoint x="450" y="300" as="sourcePoint" />
            <mxPoint x="500" y="250" as="targetPoint" />
          </mxGeometry>
        </mxCell>
        <mxCell id="ZsgfNWjqqYG_w8EOnqYH-60" value="" style="endArrow=classic;startArrow=classic;html=1;rounded=0;exitX=1;exitY=0.5;exitDx=0;exitDy=0;entryX=0;entryY=0.5;entryDx=0;entryDy=0;entryPerimeter=0;" edge="1" parent="1" source="ZsgfNWjqqYG_w8EOnqYH-35" target="ZsgfNWjqqYG_w8EOnqYH-37">
          <mxGeometry width="50" height="50" relative="1" as="geometry">
            <mxPoint x="380" y="200" as="sourcePoint" />
            <mxPoint x="460" y="200" as="targetPoint" />
          </mxGeometry>
        </mxCell>
        <mxCell id="ZsgfNWjqqYG_w8EOnqYH-61" value="" style="edgeStyle=orthogonalEdgeStyle;rounded=0;orthogonalLoop=1;jettySize=auto;html=1;entryX=0.5;entryY=1;entryDx=0;entryDy=0;exitX=0.5;exitY=1;exitDx=0;exitDy=0;" edge="1" parent="1" source="ZsgfNWjqqYG_w8EOnqYH-17" target="ZsgfNWjqqYG_w8EOnqYH-2">
          <mxGeometry relative="1" as="geometry">
            <mxPoint x="850" y="750" as="sourcePoint" />
            <mxPoint x="810" y="731" as="targetPoint" />
            <Array as="points">
              <mxPoint x="850" y="780" />
              <mxPoint x="120" y="780" />
            </Array>
          </mxGeometry>
        </mxCell>
        <mxCell id="ZsgfNWjqqYG_w8EOnqYH-62" value="" style="endArrow=classic;html=1;rounded=0;exitX=0;exitY=0.5;exitDx=0;exitDy=0;entryX=0;entryY=0.5;entryDx=0;entryDy=0;" edge="1" parent="1" source="ZsgfNWjqqYG_w8EOnqYH-2" target="ZsgfNWjqqYG_w8EOnqYH-14">
          <mxGeometry width="50" height="50" relative="1" as="geometry">
            <mxPoint x="180" y="731" as="sourcePoint" />
            <mxPoint x="280" y="731" as="targetPoint" />
            <Array as="points">
              <mxPoint x="30" y="721" />
              <mxPoint x="30" y="421" />
            </Array>
          </mxGeometry>
        </mxCell>
        <mxCell id="ZsgfNWjqqYG_w8EOnqYH-63" value="BASE DE DATOS" style="rounded=0;whiteSpace=wrap;html=1;fillColor=#a0522d;fontColor=#ffffff;strokeColor=#6D1F00;" vertex="1" parent="1">
          <mxGeometry x="450" y="260" width="100" height="50" as="geometry" />
        </mxCell>
        <mxCell id="ZsgfNWjqqYG_w8EOnqYH-64" value="" style="endArrow=classic;startArrow=classic;html=1;rounded=0;exitX=0.5;exitY=1;exitDx=0;exitDy=0;exitPerimeter=0;entryX=0;entryY=0.5;entryDx=0;entryDy=0;" edge="1" parent="1" source="ZsgfNWjqqYG_w8EOnqYH-37" target="ZsgfNWjqqYG_w8EOnqYH-63">
          <mxGeometry width="50" height="50" relative="1" as="geometry">
            <mxPoint x="375" y="200" as="sourcePoint" />
            <mxPoint x="460" y="200" as="targetPoint" />
            <Array as="points">
              <mxPoint x="315" y="285" />
            </Array>
          </mxGeometry>
        </mxCell>
      </root>
    </mxGraphModel>
  </diagram>
</mxfile>
